<?xml version="1.0" encoding="UTF-8"?>
<!DOCTYPE svg  PUBLIC '-//W3C//DTD SVG 1.1//EN'  'http://www.w3.org/Graphics/SVG/1.1/DTD/svg11.dtd'>
<svg version="1.1" viewBox="0 0 335 168" xmlns="http://www.w3.org/2000/svg" xmlns:xlink="http://www.w3.org/1999/xlink">
<defs>
<path id="a" d="m216.75 49.14c-28.67 4.18-44.6 6.5-47.79 6.96-8.57 1.25-12 11.81-5.79 17.86 2.31 2.25 13.83 13.48 34.58 33.7-4.91 28.55-7.63 44.42-8.18 47.59-1.47 8.6 7.59 15.05 15.18 11.02 2.85-1.49 17.1-8.98 42.75-22.47 25.65 13.49 39.9 20.98 42.75 22.47 7.59 4 16.65-2.42 15.18-11.02-0.55-3.17-3.27-19.04-8.18-47.59 20.75-20.22 32.27-31.45 34.58-33.7 6.21-6.05 2.78-16.61-5.79-17.86-3.19-0.46-19.12-2.78-47.79-6.96-12.82-25.99-19.94-40.42-21.36-43.31-3.83-7.72-14.92-7.82-18.78 0-2.85 5.77-9.97 20.21-21.36 43.31z"/>
<path id="e" d="m176.76 49.14c-28.68 4.18-44.61 6.5-47.79 6.96-8.57 1.25-12.01 11.81-5.79 17.86 2.3 2.25 13.83 13.48 34.57 33.7-4.91 28.55-7.63 44.42-8.18 47.59-1.47 8.6 7.59 15.05 15.18 11.02 2.85-1.49 17.1-8.98 42.75-22.47 25.65 13.49 39.9 20.98 42.75 22.47 7.59 4 16.65-2.42 15.18-11.02-0.54-3.17-3.27-19.04-8.18-47.59 20.75-20.22 32.27-31.45 34.58-33.7 6.21-6.05 2.78-16.61-5.79-17.86-3.19-0.46-19.12-2.78-47.79-6.96-12.82-25.99-19.94-40.42-21.36-43.31-3.83-7.72-14.92-7.82-18.78 0-2.84 5.77-9.96 20.21-21.35 43.31z"/>
<path id="b" d="m136.75 49.14c-28.67 4.18-44.6 6.5-47.79 6.96-8.57 1.25-12 11.81-5.79 17.86 2.31 2.25 13.83 13.48 34.58 33.7-4.91 28.55-7.64 44.42-8.18 47.59-1.47 8.6 7.59 15.05 15.18 11.02 2.85-1.49 17.1-8.98 42.75-22.47 25.65 13.49 39.9 20.98 42.75 22.47 7.59 4 16.65-2.42 15.18-11.02-0.55-3.17-3.27-19.04-8.18-47.59 20.75-20.22 32.27-31.45 34.58-33.7 6.21-6.05 2.78-16.61-5.79-17.86-3.19-0.46-19.12-2.78-47.79-6.96-12.82-25.99-19.94-40.42-21.36-43.31-3.83-7.72-14.92-7.82-18.78 0-2.85 5.77-9.97 20.21-21.36 43.31z"/>
<path id="d" d="m96.75 49.14c-28.67 4.18-44.6 6.5-47.79 6.96-8.57 1.25-12 11.81-5.79 17.86 2.31 2.25 13.83 13.48 34.58 33.7-4.91 28.55-7.63 44.42-8.18 47.59-1.47 8.6 7.59 15.05 15.18 11.02 2.85-1.49 17.1-8.98 42.75-22.47 25.65 13.49 39.9 20.98 42.75 22.47 7.59 4 16.65-2.42 15.18-11.02-0.54-3.17-3.27-19.04-8.18-47.59 20.75-20.22 32.27-31.45 34.58-33.7 6.21-6.05 2.78-16.61-5.79-17.86-3.19-0.46-19.12-2.78-47.79-6.96-12.82-25.99-19.94-40.42-21.36-43.31-3.83-7.72-14.92-7.82-18.78 0-2.84 5.77-9.96 20.21-21.36 43.31z"/>
<path id="c" d="m56.75 49.14c-28.67 4.18-44.6 6.5-47.79 6.96-8.57 1.25-12 11.81-5.79 17.86 2.31 2.25 13.83 13.48 34.58 33.7-4.91 28.55-7.63 44.42-8.18 47.59-1.47 8.6 7.59 15.05 15.18 11.02 2.85-1.49 17.1-8.98 42.75-22.47 25.65 13.49 39.9 20.98 42.75 22.47 7.59 4 16.65-2.42 15.18-11.02-0.55-3.17-3.27-19.04-8.18-47.59 20.75-20.22 32.27-31.45 34.58-33.7 6.21-6.05 2.78-16.61-5.79-17.86-3.19-0.46-19.12-2.78-47.79-6.96-12.82-25.99-19.94-40.42-21.36-43.31-3.83-7.72-14.92-7.82-18.78 0-2.85 5.77-9.97 20.21-21.36 43.31z"/>
</defs>
<use fill="#ff4f00" xlink:href="#a"/>
<use fill-opacity="0" stroke="#000000" stroke-opacity="0" xlink:href="#a"/>
<use fill="#ff9700" xlink:href="#e"/>
<use fill-opacity="0" stroke="#000000" stroke-opacity="0" xlink:href="#e"/>
<use fill="#bee200" xlink:href="#b"/>
<use fill-opacity="0" stroke="#000000" stroke-opacity="0" xlink:href="#b"/>
<use fill="#0eb100" xlink:href="#d"/>
<use fill-opacity="0" stroke="#000000" stroke-opacity="0" xlink:href="#d"/>
<use fill="#007e00" xlink:href="#c"/>
<use fill-opacity="0" stroke="#000000" stroke-opacity="0" xlink:href="#c"/>
</svg>
